# xmcd CD database file
#
# Track frame offsets:
#	150
#	11910
#	22302
#	31605
#	44987
#	56865
#	68182
#	79192
#	92092
#	102682
#	116400
#	128710
#	148337
#	159740
#	172897
#
# Disc length: 2469 seconds
#
# Revision: 0
# Processed by: cddbd v1.4PL0 Copyright (c) Steve Scherf et al.
# Submitted via: CDex 1.50beta9
#
DISCID=dc09a30f
DTITLE=Various Artist - WESTERN LOVE SONGS 9
DYEAR=2002
DGENRE=Country
TTITLE0=CORRINA CORRINA
TTITLE1=ALL I HAVE TO DO IS DREAM
TTITLE2=DON'T BE CRUEL
TTITLE3=WHISPERING PINES
TTITLE4=LONELY SOLDIER BOY
TTITLE5=ON LONDON BRIDGE
TTITLE6=YOUNG WORLD
TTITLE7=THE BALLAD OF DAVY CROCKET
TTITLE8=BREAKING UP IS HARD TO DO
TTITLE9=THE YELLOW ROSE OF TEXAS
TTITLE10=(SITTIN ON) THE BOCK OF THE BAY
TTITLE11=DON'T CRY JONI
TTITLE12=MORE
TTITLE13=TRY TO REMEMBER
TTITLE14=TO SIR WITH LOVE
EXTD=YEAR: 2002
EXTT0=
EXTT1=
EXTT2=
EXTT3=
EXTT4=
EXTT5=
EXTT6=
EXTT7=
EXTT8=
EXTT9=
EXTT10=
EXTT11=
EXTT12=
EXTT13=
EXTT14=
PLAYORDER=
